# xmcd CD database file
#
# Track frame offsets:
#	183
#	22458
#	39783
#	57633
#	74483
#	93433
#	114858
#	133133
#	149620
#	170983
#	188308
#	208008
#
# Disc length: 2955 seconds
#
# Revision: 0
# Processed by: cddbd v1.4PL0 Copyright (c) Steve Scherf et al.
# Submitted via: Feurio! 1.62 - http://www.feurio.com
#
DISCID=b80b890c
DTITLE=Mick Clarke - Rock Me...
DYEAR=1985
DGENRE=blues
TTITLE0=Cold Comfort
TTITLE1=Let It Go
TTITLE2=Green Light
TTITLE3=(I Had A) Good Friend
TTITLE4=Shake That Boogie!
TTITLE5=Walking By Myself
TTITLE6=You Worry Me
TTITLE7=Nothing But A Fool
TTITLE8=19 Years Old
TTITLE9=Carry Me Home
TTITLE10=Ugly Guy
TTITLE11=Solid State
EXTD=YEAR:1985 Appaloosa
EXTT0=
EXTT1=
EXTT2=
EXTT3=
EXTT4=
EXTT5=
EXTT6=
EXTT7=
EXTT8=
EXTT9=
EXTT10=
EXTT11=
PLAYORDER=
